<svg width="2000" height="2000" viewBox="0 0 2000 2000" fill="none" xmlns="http://www.w3.org/2000/svg">
<rect width="2000" height="2000" fill="url(#paint0_linear_6392_26)"/>
<g filter="url(#filter0_d_6392_26)">
<path fill-rule="evenodd" clip-rule="evenodd" d="M999.5 1844C806.203 1795.35 646.615 1684.48 520.736 1511.4C394.856 1338.32 331.944 1146.16 332 934.94V426.2L999.5 176L1667 426.2V934.94C1667 1146.22 1604.09 1338.4 1478.26 1511.48C1352.44 1684.57 1192.85 1795.41 999.5 1844ZM914.094 723.842C993.271 641.03 1118.37 591.239 1289.39 574.467V791.454H1104.12C1047.11 791.454 1004.88 805.605 977.436 833.908C951.043 861.163 934.152 894.707 926.763 934.54C920.428 974.374 917.261 1025.21 917.261 1087.06V1443.99H663.896V587.046H884.007L914.094 723.842ZM1345.58 1399.63C1309.72 1429.2 1265.99 1443.99 1214.39 1443.99C1181.67 1443.99 1150.21 1437.88 1120.01 1425.67C1090.44 1412.81 1065.9 1392.88 1046.39 1365.88C1027.51 1338.88 1018.08 1305.13 1018.08 1264.63C1018.08 1224.13 1027.51 1190.38 1046.39 1163.37C1065.9 1136.37 1090.44 1116.44 1120.01 1103.59C1150.21 1090.73 1181.67 1084.3 1214.39 1084.3C1265.99 1084.3 1309.72 1099.41 1345.58 1129.62C1381.45 1159.2 1399.38 1204.2 1399.38 1264.63C1399.38 1325.06 1381.45 1370.06 1345.58 1399.63Z" fill="white"/>
</g>
<defs>
<filter id="filter0_d_6392_26" x="332" y="176" width="1395" height="1728" filterUnits="userSpaceOnUse" color-interpolation-filters="sRGB">
<feFlood flood-opacity="0" result="BackgroundImageFix"/>
<feColorMatrix in="SourceAlpha" type="matrix" values="0 0 0 0 0 0 0 0 0 0 0 0 0 0 0 0 0 0 127 0" result="hardAlpha"/>
<feOffset dx="60" dy="60"/>
<feComposite in2="hardAlpha" operator="out"/>
<feColorMatrix type="matrix" values="0 0 0 0 0 0 0 0 0 0.2 0 0 0 0 0.080303 0 0 0 0.5 0"/>
<feBlend mode="normal" in2="BackgroundImageFix" result="effect1_dropShadow_6392_26"/>
<feBlend mode="normal" in="SourceGraphic" in2="effect1_dropShadow_6392_26" result="shape"/>
</filter>
<linearGradient id="paint0_linear_6392_26" x1="1000" y1="0" x2="1000" y2="2000" gradientUnits="userSpaceOnUse">
<stop stop-color="#008535"/>
<stop offset="0.399038" stop-color="#089641"/>
<stop offset="0.65" stop-color="#12A54D"/>
<stop offset="1" stop-color="#1FB25A"/>
</linearGradient>
</defs>
</svg>
