<svg width="806" height="1008" viewBox="0 0 806 1008" fill="none" xmlns="http://www.w3.org/2000/svg">
<path d="M403 1008C286.298 978.6 189.947 911.602 113.948 807.005C37.9492 702.408 -0.0335611 586.286 2.22504e-05 458.64V151.2L403 0L806 151.2V458.64C806 586.32 768.017 702.458 692.052 807.055C616.086 911.652 519.736 978.634 403 1008Z" fill="url(#paint0_linear_6138_101)"/>
<path d="M351.437 331.07C399.239 281.026 474.767 250.936 578.021 240.8V371.929H466.163C431.745 371.929 406.25 380.481 389.679 397.585C373.745 414.055 363.547 434.326 359.085 458.398C355.261 482.47 353.349 513.194 353.349 550.569V766.267H200.381V248.402H333.272L351.437 331.07Z" fill="url(#paint1_linear_6138_101)"/>
<path d="M611.947 739.46C590.293 757.331 563.891 766.267 532.74 766.267C512.986 766.267 493.991 762.576 475.757 755.195C457.902 747.424 443.087 735.381 431.31 719.064C419.913 702.747 414.215 682.351 414.215 657.875C414.215 633.4 419.913 613.004 431.31 596.687C443.087 580.37 457.902 568.326 475.757 560.556C493.991 552.786 512.986 548.901 532.74 548.901C563.891 548.901 590.293 558.031 611.947 576.291C633.6 594.162 644.427 621.357 644.427 657.875C644.427 694.394 633.6 721.589 611.947 739.46Z" fill="url(#paint2_linear_6138_101)"/>
<defs>
<linearGradient id="paint0_linear_6138_101" x1="403" y1="0" x2="403" y2="1008" gradientUnits="userSpaceOnUse">
<stop stop-color="#007E3A"/>
<stop offset="1" stop-color="#00A819"/>
</linearGradient>
<linearGradient id="paint1_linear_6138_101" x1="422.404" y1="240.8" x2="422.404" y2="766.267" gradientUnits="userSpaceOnUse">
<stop stop-color="white"/>
<stop offset="1" stop-color="white" stop-opacity="0"/>
</linearGradient>
<linearGradient id="paint2_linear_6138_101" x1="422.404" y1="240.8" x2="422.404" y2="766.267" gradientUnits="userSpaceOnUse">
<stop stop-color="white"/>
<stop offset="1" stop-color="white" stop-opacity="0"/>
</linearGradient>
</defs>
</svg>
