<svg width="1080" height="1080" viewBox="0 0 1080 1080" fill="none" xmlns="http://www.w3.org/2000/svg">
<g clip-path="url(#clip0_996_2)">
<rect width="1080" height="1080" rx="160" fill="#007E3A"/>
<path d="M540 142.25C544.917 142.25 550.19 143.103 556.011 145.16L825.104 246.07C834.156 249.648 841.148 255.072 846.891 262.981C852.054 270.094 854.515 277.561 854.5 286.802V499.5C854.5 595.246 827.309 684.672 771.996 768.691C717.475 851.509 645.075 907.416 553.748 937.831L553.736 937.835C551.402 938.613 549.209 939.15 547.145 939.494C545.453 939.776 543.109 940 540 940C536.891 940 534.547 939.776 532.855 939.494C530.791 939.15 528.599 938.613 526.264 937.835C434.931 907.391 362.527 851.466 308.004 768.646C252.69 684.624 225.5 595.213 225.5 499.5V286.875C225.5 277.609 227.976 270.114 233.154 262.981C238.907 255.057 245.894 249.637 254.906 246.065L523.988 145.16C529.81 143.103 535.082 142.25 540 142.25Z" stroke="url(#paint0_linear_996_2)" stroke-width="91"/>
<path d="M510.952 424.893C541.632 392.798 590.108 373.5 656.379 367V451.098H584.586C562.495 451.098 546.132 456.582 535.496 467.552C525.269 478.115 518.724 491.115 515.86 506.553C513.406 521.992 512.179 541.696 512.179 565.666V704H414V371.875H499.293L510.952 424.893Z" fill="url(#paint1_linear_996_2)"/>
<path d="M678.153 686.808C664.255 698.269 647.31 704 627.317 704C614.638 704 602.447 701.633 590.743 696.899C579.284 691.916 569.775 684.192 562.216 673.727C554.902 663.263 551.244 650.182 551.244 634.485C551.244 618.788 554.902 605.707 562.216 595.243C569.775 584.778 579.284 577.054 590.743 572.071C602.447 567.088 614.638 564.596 627.317 564.596C647.31 564.596 664.255 570.451 678.153 582.162C692.051 593.623 699 611.064 699 634.485C699 657.906 692.051 675.347 678.153 686.808Z" fill="url(#paint2_linear_996_2)"/>
</g>
<defs>
<linearGradient id="paint0_linear_996_2" x1="518.642" y1="263.808" x2="518.642" y2="1551.38" gradientUnits="userSpaceOnUse">
<stop stop-color="white"/>
<stop offset="1" stop-color="#00A819" stop-opacity="0"/>
</linearGradient>
<linearGradient id="paint1_linear_996_2" x1="548.046" y1="430.346" x2="548.046" y2="918.573" gradientUnits="userSpaceOnUse">
<stop stop-color="white"/>
<stop offset="1" stop-color="#00A819" stop-opacity="0"/>
</linearGradient>
<linearGradient id="paint2_linear_996_2" x1="2606.21" y1="524.052" x2="2606.21" y2="806.777" gradientUnits="userSpaceOnUse">
<stop stop-color="white"/>
<stop offset="1" stop-color="#00A819" stop-opacity="0"/>
</linearGradient>
<clipPath id="clip0_996_2">
<rect width="1080" height="1080" rx="160" fill="white"/>
</clipPath>
</defs>
</svg>
